Coordinates
version=1
nRows=8
nColumns=36
inDegrees=yes

Units are S.I. units (second, meters, Newtons, ...)
If the header above contains a line with 'inDegrees', this indicates whether rotational values are in degrees (yes) or radians (no).

endheader
time	pelvis_tilt	pelvis_list	pelvis_rotation	pelvis_tx	pelvis_ty	pelvis_tz	hip_flexion_r	hip_adduction_r	hip_rotation_r	knee_angle_r	knee_angle_r_beta	ankle_angle_r	subtalar_angle_r	mtp_angle_r	hip_flexion_l	hip_adduction_l	hip_rotation_l	knee_angle_l	knee_angle_l_beta	ankle_angle_l	subtalar_angle_l	mtp_angle_l	lumbar_extension	lumbar_bending	lumbar_rotation	arm_flex_r	arm_add_r	arm_rot_r	elbow_flex_r	pro_sup_r	arm_flex_l	arm_add_l	arm_rot_l	elbow_flex_l	pro_sup_l
     29.71666670	      4.15547938	     -0.10792371	    184.18788032	      0.26352891	      0.99113111	      0.66935844	     13.36450120	      1.27098944	      1.36196748	     19.29189070	      0.33670701	     -3.45976756	    -17.99256572	     -7.49999987	     31.85451234	     -6.09011584	     -0.28207748	     62.47563384	      1.09040551	    -15.12624031	    -23.47549058	     -7.49999987	    -14.12969260	     -3.18797159	      5.32355885	      3.34904152	    -13.25033253	     -6.77221117	     25.80471543	     82.52055811	     13.97195418	    -13.95406690	      5.94785978	     25.35778039	     86.13767192
     29.73333330	      4.39092371	      0.11613602	    183.62326570	      0.26812631	      0.99219295	      0.67177656	     11.20335607	      1.83509191	      3.76267445	     15.95653887	      0.27849414	     -4.80774950	    -17.82543838	     -7.49999987	     32.07293988	     -6.49234348	     -2.46417821	     56.86543559	      0.99248908	    -17.02399067	    -23.86803768	     -7.49999987	    -14.23904361	     -2.84571397	      6.40836448	      5.01775128	    -14.13438569	     -6.11071486	     25.60477594	     83.22315869	     13.81665350	    -13.28927740	      5.86529980	     24.71214010	     86.85152451
     29.75000000	      4.67496766	      0.61663689	    183.18528811	      0.26976951	      0.99099431	      0.67191740	      9.62761974	      2.57351602	      5.84771034	     13.76935677	      0.24032061	     -5.67629925	    -17.85154709	     -7.49999987	     32.24639334	     -7.05592803	     -4.33801182	     51.38819343	      0.89689317	    -18.51872337	    -24.11827108	     -7.49999987	    -14.34175875	     -2.13104151	      7.20049779	      6.42156631	    -15.08080431	     -5.21816656	     26.11440347	     82.31302245	     13.15020297	    -12.62335490	      5.58802977	     24.97959126	     85.51300205
     29.76666670	      4.79659382	      1.09873690	    183.06120538	      0.26888598	      0.99084288	      0.66934445	      8.62255861	      3.32543232	      7.04715861	     13.54933626	      0.23648053	     -5.13203952	    -17.55947814	     -7.49999987	     32.12639319	     -7.60217167	     -5.92014240	     45.88454894	      0.80083645	    -19.35264182	    -24.03584474	     -7.49999987	    -14.41676008	     -1.52021876	      7.73098913	      7.62781164	    -15.94544512	     -3.92501650	     26.77632092	     80.83342695	     12.37075883	    -12.02556424	      5.09591606	     25.25498334	     83.40945117
     29.78333330	      4.99285071	      1.70108474	    183.14595118	      0.26711227	      0.99100591	      0.66606502	      8.43243151	      4.26044413	      7.00061860	     15.26574638	      0.26643754	     -2.74217670	    -15.73000524	     -7.49999987	     31.85184510	     -8.33395398	     -7.43247248	     40.21920478	      0.70195755	    -19.12882618	    -22.79021236	     -7.49999987	    -13.85628432	     -0.83008717	      7.89547753	      9.23091831	    -16.79215679	     -0.98231173	     26.22604510	     81.29471529	     11.64195515	    -11.38649051	      3.87521992	     24.05752871	     83.01790342
     29.80000000	      5.04193985	      2.45566018	    183.28492047	      0.26599128	      0.99089689	      0.66495522	      8.20619408	      5.35666968	      6.37363784	     17.55500600	      0.30639265	      0.39231861	    -12.89978316	     -7.49999987	     31.20132721	     -9.11290422	     -8.77719337	     34.14298286	      0.59590747	    -19.70727503	    -22.12857418	     -7.49999987	    -13.52691334	      0.07454014	      7.42487582	     11.27719948	    -17.54648047	      2.41514577	     26.33614114	     83.17744804	      9.68532467	    -10.82207284	     -0.08451611	     25.13650666	     86.29099147
     29.81666670	      5.00761226	      3.62045799	    183.35544890	      0.26643326	      0.99108009	      0.66689066	      7.65650519	      6.78087170	      5.56314727	     19.45079559	      0.33948043	      3.37989467	     -9.12512171	     -7.49999987	     30.39768249	    -10.28767706	    -10.43646179	     27.63487822	      0.48231961	    -20.24385773	    -20.76901676	     -7.49999987	    -13.16456980	      1.49234177	      8.23854030	     12.37930859	    -18.47866784	      3.27386777	     27.44936655	     82.40362694	      8.92884548	    -10.01169963	     -0.66606053	     24.44000384	     85.05246780
     29.83333330	      4.63136882	      5.06833445	    183.32379227	      0.26964030	      0.99147240	      0.67092042	      6.38318423	      8.36298971	      4.91697015	     20.59921284	      0.35952409	      5.87382432	     -4.71690534	     -7.49999987	     29.30075652	    -11.70621900	    -12.52850338	     21.05725158	      0.36751837	    -21.00283535	    -19.03252202	     -7.49999987	    -13.46502296	      3.37707588	      8.84610151	     13.68701884	    -19.82177530	      5.50086297	     29.55468926	     82.22633784	      7.84103984	     -9.22460439	     -1.78850305	     24.47568470	     84.58206491
